<svg xmlns="http://www.w3.org/2000/svg" width="173.912" height="166.829" viewBox="0 0 173.912 166.829">
  <g id="Garrett_Fisher_Design_Logo_2" data-name="Garrett Fisher Design Logo 2" transform="translate(3 3)">
    <path id="Path_1" data-name="Path 1" d="M344.119,236.319h-10.2c-18.31-6.093-29.916-22.334-28.528-39.287,1.237-14.995,12.452-28.17,28.528-33.432h10.2c-18.331,4.431-31.066,19.743-30.805,36.874C313.573,217.249,326.2,231.987,344.119,236.319Z" transform="translate(-266.996 -145.598)" fill="#00ffd4"/>
    <path id="Path_2" data-name="Path 2" d="M456.2,416.4h10.2c18.31,6.093,29.916,22.334,28.528,39.287-1.237,14.995-12.452,28.17-28.528,33.432H456.2c18.331-4.431,31.066-19.743,30.805-36.874C486.745,435.47,474.119,420.732,456.2,416.4Z" transform="translate(-385.174 -348.389)" fill="#00ffd4"/>
    <path id="Path_3" data-name="Path 3" d="M495.229,392.664a168.1,168.1,0,0,1-40.329,0V385.8a85.458,85.458,0,0,0,19.937,2.433,84.521,84.521,0,0,0,20.392-2.433Z" transform="translate(-384.156 -323.842)" fill="#00ffd4"/>
    <path id="Path_4" data-name="Path 4" d="M612.165,502.188a62.6,62.6,0,0,1-13.58,1.523,61.561,61.561,0,0,1-13.884-1.523V497.5a62.913,62.913,0,0,0,14.188,1.523,61.613,61.613,0,0,0,13.277-1.523Z" transform="translate(-485.797 -413.446)" fill="#00ffd4"/>
    <path id="Path_5" data-name="Path 5" d="M757.8,529.6" transform="translate(-621.345 -439.196)" fill="#00ffd4"/>
    <ellipse id="Ellipse_1" data-name="Ellipse 1" cx="83.956" cy="80.414" rx="83.956" ry="80.414" fill="none" stroke="#fff" stroke-miterlimit="10" stroke-width="6"/>
  </g>
</svg>
