<svg xmlns="http://www.w3.org/2000/svg" width="63.786" height="67" viewBox="0 0 63.786 67">
  <g id="Garrett_Fisher_Design_Logo_2" data-name="Garrett Fisher Design Logo 2" transform="translate(-128.8 -72.6)">
    <path id="Path_1" data-name="Path 1" d="M320.036,193.894h-3.873a15.982,15.982,0,0,1,0-30.294h3.873a15.654,15.654,0,0,0,0,30.294Z" transform="translate(-161.939 -83.501)" fill="#00ffd4"/>
    <path id="Path_2" data-name="Path 2" d="M456.2,416.4h3.873a15.982,15.982,0,0,1,0,30.294H456.2a15.654,15.654,0,0,0,0-30.294Z" transform="translate(-300.419 -315.467)" fill="#00ffd4"/>
    <path id="Path_3" data-name="Path 3" d="M470.22,388.66a58.273,58.273,0,0,1-15.32,0V385.8a29.765,29.765,0,0,0,7.574,1.014,29.437,29.437,0,0,0,7.747-1.014Z" transform="translate(-299.226 -287.389)" fill="#00ffd4"/>
    <path id="Path_4" data-name="Path 4" d="M595.133,499.453a21.785,21.785,0,0,1-5.159.635,21.424,21.424,0,0,1-5.274-.635V497.5a21.888,21.888,0,0,0,5.39.635,21.446,21.446,0,0,0,5.044-.635Z" transform="translate(-418.329 -389.884)" fill="#00ffd4"/>
    <path id="Path_5" data-name="Path 5" d="M757.8,529.6" transform="translate(-577.164 -419.338)" fill="#00ffd4"/>
    <ellipse id="Ellipse_1" data-name="Ellipse 1" cx="31.893" cy="33.5" rx="31.893" ry="33.5" transform="translate(128.8 72.6)" fill="none"/>
  </g>
</svg>
